<svg id="Layer_1" enable-background="new 0 0 508.985 508.985" height="512" viewBox="0 0 508.985 508.985" width="512" xmlns="http://www.w3.org/2000/svg"><g id="XMLID_1204_"><path id="XMLID_1206_" d="m342.847 346.046c64.702 0 123.742-38.104 150.41-97.076l15.728-34.777c-26.585 9.795-52.674 26.854-91.138 26.854-74.439 0-135-60.561-135-135 0-39.143 16.598-63.181 27.08-91.241l-35.005 15.831c-160.358 75.074-109.259 313.007 67.925 315.409z"/><path id="XMLID_1207_" d="m477.614 321.922c-104.432 101.302-282.011 52.281-321.692-85.326-15.955 13.105-27.967 29.814-35.354 48.355-139.207-13.285-167.673 179.964-33.459 209.144-4.587.042 61.494.169 327.463 0 24.178-4.056 46.366-16.883 62.478-36.117 32.173-38.415 34.383-95.589.564-136.056z"/></g></svg>