<svg width="121" height="121" viewBox="0 0 121 121" fill="none" xmlns="http://www.w3.org/2000/svg">
<path d="M95.9415 51.7584C95.6886 33.3099 80.6029 18.3797 62.096 18.3797C53.8633 18.3797 45.9322 21.3746 39.7635 26.8123C34.2581 31.6651 30.4919 38.1504 29.0005 45.2707C28.8915 45.2695 28.7835 45.2686 28.6758 45.2686C12.864 45.2688 0 58.1326 0 73.9446C0 89.7565 12.864 102.62 28.6758 102.62H95.5674C109.591 102.62 121 91.2116 121 77.1882C121 63.2897 109.793 51.9592 95.9415 51.7584ZM95.5674 97.4594H28.6758C15.7096 97.4594 5.16092 86.9107 5.16092 73.9446C5.16092 60.9784 15.7096 50.4297 28.6758 50.4297C29.367 50.4297 30.0973 50.4666 30.9081 50.5432C32.284 50.6755 33.5202 49.6933 33.7072 48.3226C34.6362 41.5117 37.9991 35.2473 43.1761 30.6836C48.4016 26.0771 55.1206 23.5404 62.0956 23.5404C77.9139 23.5404 90.7831 36.4093 90.7831 52.2279C90.7831 52.7975 90.7409 53.3845 90.6962 54.0061L90.6773 54.2705C90.6236 55.0296 90.9079 55.7738 91.4541 56.3039C92 56.834 92.7527 57.0951 93.5097 57.02C94.1955 56.9509 94.8877 56.916 95.5671 56.916C106.745 56.916 115.839 66.0099 115.839 77.1877C115.839 88.3655 106.745 97.4594 95.5674 97.4594Z" fill="black"/>
<path d="M62.096 30.5075C51.3058 30.5075 42.0691 38.571 40.6108 49.2642C40.4182 50.6764 41.407 51.9772 42.8188 52.1698C42.9369 52.1861 43.0546 52.1939 43.1707 52.1939C44.4407 52.1939 45.5479 51.2557 45.7242 49.9618C46.8356 41.8135 53.8739 35.6685 62.0958 35.6685C63.5211 35.6685 64.6762 34.5128 64.6762 33.088C64.6765 31.6629 63.5213 30.5075 62.096 30.5075Z" fill="black"/>
</svg>
